# xmcd CD database file
# Copyright (C) 1993-1996 Ti Kan
#
# Track frame offsets:
# 150
# 12435
# 24898
# 37073
# 51023
# 63835
# 79998
# 90773
# 101583
# 114160
#
# Disc length: 1662 seconds
#
# Revision: 0
# Processed by: cddbd v1.4b41PL1 Copyright (c) Steve Scherf et al.
# Submitted via: inCDius 1.1b5
#
DISCID=6a067c0a
DTITLE=Ray Price - Release Me
DYEAR=1900
DGENRE=
TTITLE0=Release Me
TTITLE1=I've Got A New Heartache
TTITLE2=If She Could See Me Now
TTITLE3=Let Me Talk To You
TTITLE4=I Fall To Pieces
TTITLE5=Funny How Time Slips Away
TTITLE6=You're Stronger Than Me
TTITLE7=I Want To Hear It From You
TTITLE8=One More Time
TTITLE9=Am I That Easy To Forget
EXTD=
EXTT0=
EXTT1=
EXTT2=
EXTT3=
EXTT4=
EXTT5=
EXTT6=
EXTT7=
EXTT8=
EXTT9=
PLAYORDER=
